<!-- <svg xmlns="http://www.w3.org/2000/svg" viewBox="0 0 841.9 595.3"><g fill="#61DAFB"><path d="M666.3 296.5c0-32.5-40.7-63.3-103.1-82.4 14.4-63.6 8-114.2-20.2-130.4-6.5-3.8-14.1-5.6-22.4-5.6v22.3c4.6 0 8.3.9 11.4 2.6 13.6 7.8 19.5 37.5 14.9 75.7-1.1 9.4-2.9 19.3-5.1 29.4-19.6-4.8-41-8.5-63.5-10.9-13.5-18.5-27.5-35.3-41.6-50 32.6-30.3 63.2-46.9 84-46.9V78c-27.5 0-63.5 19.6-99.9 53.6-36.4-33.8-72.4-53.2-99.9-53.2v22.3c20.7 0 51.4 16.5 84 46.6-14 14.7-28 31.4-41.3 49.9-22.6 2.4-44 6.1-63.6 11-2.3-10-4-19.7-5.2-29-4.7-38.2 1.1-67.9 14.6-75.8 3-1.8 6.9-2.6 11.5-2.6V78.5c-8.4 0-16 1.8-22.6 5.6-28.1 16.2-34.4 66.7-19.9 130.1-62.2 19.2-102.7 49.9-102.7 82.3 0 32.5 40.7 63.3 103.1 82.4-14.4 63.6-8 114.2 20.2 130.4 6.5 3.8 14.1 5.6 22.5 5.6 27.5 0 63.5-19.6 99.9-53.6 36.4 33.8 72.4 53.2 99.9 53.2 8.4 0 16-1.8 22.6-5.6 28.1-16.2 34.4-66.7 19.9-130.1 62-19.1 102.5-49.9 102.5-82.3zm-130.2-66.7c-3.7 12.9-8.3 26.2-13.5 39.5-4.1-8-8.4-16-13.1-24-4.6-8-9.5-15.8-14.4-23.4 14.2 2.1 27.9 4.7 41 7.9zm-45.8 106.5c-7.8 13.5-15.8 26.3-24.1 38.2-14.9 1.3-30 2-45.2 2-15.1 0-30.2-.7-45-1.9-8.3-11.9-16.4-24.6-24.2-38-7.6-13.1-14.5-26.4-20.8-39.8 6.2-13.4 13.2-26.8 20.7-39.9 7.8-13.5 15.8-26.3 24.1-38.2 14.9-1.3 30-2 45.2-2 15.1 0 30.2.7 45 1.9 8.3 11.9 16.4 24.6 24.2 38 7.6 13.1 14.5 26.4 20.8 39.8-6.3 13.4-13.2 26.8-20.7 39.9zm32.3-13c5.4 13.4 10 26.8 13.8 39.8-13.1 3.2-26.9 5.9-41.2 8 4.9-7.7 9.8-15.6 14.4-23.7 4.6-8 8.9-16.1 13-24.1zM421.2 430c-9.3-9.6-18.6-20.3-27.8-32 9 .4 18.2.7 27.5.7 9.4 0 18.7-.2 27.8-.7-9 11.7-18.3 22.4-27.5 32zm-74.4-58.9c-14.2-2.1-27.9-4.7-41-7.9 3.7-12.9 8.3-26.2 13.5-39.5 4.1 8 8.4 16 13.1 24 4.7 8 9.5 15.8 14.4 23.4zM420.7 163c9.3 9.6 18.6 20.3 27.8 32-9-.4-18.2-.7-27.5-.7-9.4 0-18.7.2-27.8.7 9-11.7 18.3-22.4 27.5-32zm-74 58.9c-4.9 7.7-9.8 15.6-14.4 23.7-4.6 8-8.9 16-13 24-5.4-13.4-10-26.8-13.8-39.8 13.1-3.1 26.9-5.8 41.2-7.9zm-90.5 125.2c-35.4-15.1-58.3-34.9-58.3-50.6 0-15.7 22.9-35.6 58.3-50.6 8.6-3.7 18-7 27.7-10.1 5.7 19.6 13.2 40 22.5 60.9-9.2 20.8-16.6 41.1-22.2 60.6-9.9-3.1-19.3-6.5-28-10.2zM310 490c-13.6-7.8-19.5-37.5-14.9-75.7 1.1-9.4 2.9-19.3 5.1-29.4 19.6 4.8 41 8.5 63.5 10.9 13.5 18.5 27.5 35.3 41.6 50-32.6 30.3-63.2 46.9-84 46.9-4.5-.1-8.3-1-11.3-2.7zm237.2-76.2c4.7 38.2-1.1 67.9-14.6 75.8-3 1.8-6.9 2.6-11.5 2.6-20.7 0-51.4-16.5-84-46.6 14-14.7 28-31.4 41.3-49.9 22.6-2.4 44-6.1 63.6-11 2.3 10.1 4.1 19.8 5.2 29.1zm38.5-66.7c-8.6 3.7-18 7-27.7 10.1-5.7-19.6-13.2-40-22.5-60.9 9.2-20.8 16.6-41.1 22.2-60.6 9.9 3.1 19.3 6.5 28.1 10.2 35.4 15.1 58.3 34.9 58.3 50.6-.1 15.7-23 35.6-58.4 50.6zM320.8 78.4z"/><circle cx="420.9" cy="296.5" r="45.7"/><path d="M520.5 78.1z"/></g></svg> -->

<!-- Generator: Adobe Illustrator 17.1.0, SVG Export Plug-In 
<svg version="1.1"
	 xmlns="http://www.w3.org/2000/svg" xmlns:xlink="http://www.w3.org/1999/xlink" xmlns:a="http://ns.adobe.com/AdobeSVGViewerExtensions/3.0/"
	 x="0px" y="0px" width="215.2px" height="150.5px" viewBox="0 0 215.2 150.5" enable-background="new 0 0 215.2 150.5"
	 xml:space="preserve">
<defs>
</defs>
<g>
	<path fill="#FFFFFF" d="M114,100c-2.3,3-27,35.3-28.7,42.1c0,0,12.1-21.1,26.8-32.1c-0.1,0.8-0.2,1.6-0.3,2.4
		c0,0,30,17.5,101-109.9C212.7,2.5,131,26.6,114,100z"/>
	<g>
		<path fill="#FFFFFF" d="M111.8,98.8c-5,6.5-9.8,13-14.6,19.6c-4.9,6.9-12,14.8-14.4,23.1c-0.8,2.7,3.1,4.4,4.6,1.9
			c6.7-11.6,15.3-23,25.9-31.2c-1.2-0.9-2.4-1.9-3.7-2.8c-0.1,1-0.3,2.1-0.4,3.1c-0.1,0.8,0.6,1.8,1.2,2.2
			c6.2,3.6,15.3-0.6,20.7-3.6c9.5-5.3,17.6-13.1,24.9-20.9c13.7-14.7,25.2-31.3,36-48.1c8-12.5,15.5-25.3,22.7-38.2
			c1-1.9-0.7-4.3-2.8-3.7c-15.6,4.6-30.6,12.7-44,21.7c-27.4,18.4-48.8,45-56.5,77.5c-0.7,3.1,4.1,4.5,4.8,1.3
			c7.6-31.7,28.4-57.1,55-75.1c12.8-8.6,27.1-16.3,42-20.7c-0.9-1.2-1.9-2.4-2.8-3.7c-12.8,23-26.5,45.6-42.3,66.6
			c-8.9,11.8-18.8,23.4-30.4,32.7c-5.3,4.3-11.5,8.3-18.3,9.8c-2.5,0.6-4.6,0.7-6.8-0.2c1,0.4,0.4,0.2,0.2,0.1
			c0.4,0.7,0.8,1.4,1.2,2.2c0.1-0.6,0.2-1.2,0.2-1.8c0.3-1.8-1.7-4.4-3.7-2.8c-11.3,8.7-20.6,20.7-27.7,33c1.5,0.6,3,1.3,4.6,1.9
			c0.9-3.2,3.1-6.1,4.9-8.8c2.9-4.5,5.9-8.8,9-13.1c4.7-6.6,9.6-13.2,14.6-19.6C118.1,98.7,113.7,96.2,111.8,98.8z"/>
	</g>
</g>
</svg> -->


<!-- Generator: Adobe Illustrator 17.1.0, SVG Export Plug-In  -->
<!-- <svg version="1.1"
	 xmlns="http://www.w3.org/2000/svg" xmlns:xlink="http://www.w3.org/1999/xlink" xmlns:a="http://ns.adobe.com/AdobeSVGViewerExtensions/3.0/"
	 x="0px" y="0px" width="223px" height="160.8px" viewBox="0 0 223 160.8" enable-background="new 0 0 223 160.8"
	 xml:space="preserve">
<defs>
</defs>
<g>
	<path fill="#FFFFFF" d="M219.9,0.1c-15.6,4.6-30.6,12.7-44,21.7c-27.3,18.4-48.6,44.8-56.4,77.1c-4.9,6.4-9.7,12.9-14.4,19.4
		c-4.9,6.9-12,14.8-14.4,23.1c-0.8,2.7,3.1,4.4,4.6,1.9c6.1-10.5,13.7-20.9,23-28.8c0,0,0,0,0.1,0c6.2,3.6,15.3-0.6,20.7-3.6
		c9.5-5.3,17.6-13.1,24.9-20.9c13.7-14.7,25.2-31.3,36-48.1c8-12.5,15.5-25.3,22.7-38.2C223.8,1.9,222-0.5,219.9,0.1z"/>
	<path fill="#FFFFFF" d="M83.5,67.1c-7.6,0-15.1,0-22.7,0c-0.4,0-0.8,0.1-1.2,0.3c-11.1,0-22.2,0-33.2,0c-0.4-0.2-0.8-0.3-1.2-0.3
		c-7.6,0-15.1,0-22.7,0c-1.4,0-2.5,1.1-2.5,2.5c0,7.3,0,14.7,0,22c0,7.3,0,14.7,0,22c0,7.3,0,14.7,0,22c0,0.1,0,0.2,0,0.3
		c0,0.1,0,0.2,0,0.3c0,7.3,0,14.7,0,22c0,1.4,1.1,2.5,2.5,2.5c7.6,0,15.1,0,22.7,0c11.9,0,23.8,0,35.7,0c0.1,0,0.2,0,0.3,0
		c7.4,0,14.9,0,22.3,0c0.7,0,1.3-0.3,1.7-0.7c0,0,0,0,0.1-0.1c0,0,0,0,0.1-0.1c0.4-0.4,0.7-1,0.7-1.7c0-7.3,0-14.7,0-22
		c0-0.1,0-0.2,0-0.3c0-0.1,0-0.2,0-0.3c0-7.3,0-14.7,0-22c0-7.3,0-14.7,0-22c0-7.3,0-14.7,0-22C86,68.3,84.9,67.1,83.5,67.1z
		 M22.7,111.1c-5.9,0-11.8,0-17.7,0c0-5.7,0-11.3,0-17c5.9,0,11.8,0,17.7,0C22.7,99.8,22.7,105.4,22.7,111.1z M22.7,116.1
		c0,5.7,0,11.3,0,17c-5.9,0-11.8,0-17.7,0c0-5.7,0-11.3,0-17C10.9,116.1,16.8,116.1,22.7,116.1z M22.7,89.1c-5.9,0-11.8,0-17.7,0
		c0-5.7,0-11.3,0-17c5.9,0,11.8,0,17.7,0C22.7,77.8,22.7,83.4,22.7,89.1z M5,138.8c5.9,0,11.8,0,17.7,0c0,5.7,0,11.3,0,17
		c-5.9,0-11.8,0-17.7,0C5,150.1,5,144.4,5,138.8z M27.7,136.3c0-0.2,0-0.4,0-0.7c0-7.3,0-14.7,0-22c0-7.3,0-14.7,0-22
		c0-6.4,0-12.8,0-19.2c10.2,0,20.4,0,30.7,0c0,6.4,0,12.8,0,19.2c0,7.3,0,14.7,0,22c0,7.3,0,14.7,0,22c0,0.1,0,0.2,0,0.3
		c0,0.1,0,0.2,0,0.3c0,6.5,0,13,0,19.5c-10.2,0-20.4,0-30.7,0C27.7,149.3,27.7,142.8,27.7,136.3z M63.7,133.1c0-5.7,0-11.3,0-17
		c5.8,0,11.6,0,17.3,0c0,5.7,0,11.3,0,17C75.2,133.1,69.4,133.1,63.7,133.1z M63.7,111.1c0-5.7,0-11.3,0-17c5.8,0,11.6,0,17.3,0
		c0,5.7,0,11.3,0,17C75.2,111.1,69.4,111.1,63.7,111.1z M63.7,89.1c0-5.7,0-11.3,0-17c5.8,0,11.6,0,17.3,0c0,5.7,0,11.3,0,17
		C75.2,89.1,69.4,89.1,63.7,89.1z M63.7,138.8c5.8,0,11.6,0,17.3,0c0,5.7,0,11.3,0,17c-5.8,0-11.6,0-17.3,0
		C63.7,150.1,63.7,144.4,63.7,138.8z"/>
</g>
</svg> -->
<!-- Generator: Adobe Illustrator 17.1.0, SVG Export Plug-In  -->
<svg version="1.1"
	 xmlns="http://www.w3.org/2000/svg" xmlns:xlink="http://www.w3.org/1999/xlink" xmlns:a="http://ns.adobe.com/AdobeSVGViewerExtensions/3.0/"
	 x="0px" y="0px" width="358.6px" height="284.5px" viewBox="0 0 358.6 284.5" enable-background="new 0 0 358.6 284.5"
	 xml:space="preserve">
<defs>
</defs>
<path fill="#FFFFFF" d="M215.6,144.4c-3.2,11.3-12.5,20.3-10,33.9c2.2,12.6-1.6,24.7-6.8,36.3c-3.1,7-5.6,14.3-9.1,21.4
	c2.2-8.3,4.3-16.6,6.8-24.8c3.5-11.8,5.9-23.5,2.7-37c-11,13.3-21.6,25.7-27,41.5c0.8-10.8,5.5-20.2,10.5-29.4
	c5.5-10.2,11.6-20.2,16.6-30.8c4.6-9.8,6.6-20.4,4.6-31.2c-0.8-4.5-3.2-9.3-6.4-12.5c-6.9-7-14.7-13-22-19.5c-2-1.8-3.7-1.9-5.6-0.1
	c-1.3,1.2-2.8,2.4-4.1,3.6c-8.5,8-8.4,9.3-2.9,19.6c2.6,4.9,4.7,10.4,5.5,15.9c1.2,8.2,1,16.5,0.9,25c-5.9-13.8-3.4-31-17.3-42
	c-7.1,13.7-10,27.9-6.7,42.4c2.9,13,8,25.4,11.2,38.3c2.6,10.4,4.1,21.1,5.5,31.8c0.6,4.7,1.5,8.7,4.9,12.2
	c5.4,5.6,8.2,12.4,8.4,20.3c0.2,7.9,0.6,15.9,0.3,24c-0.9-5-1.9-10.1-2.6-15.1c-0.8-5.2-0.8-10.6-2-15.8c-1.1-5.1-4.6-8.7-9-10.7
	c-6.2,14.4-12.4,28.7-18.5,42.9c-0.5-0.2-1-0.3-1.5-0.5c0.7-2.1,1.3-4.3,2.1-6.4c6.1-15.2,11.5-30.6,11-47.3
	c-0.3-11-3.7-21.2-8.3-31.3c-7,1.7-11.8,5.9-16,10.9c-7.8,9.3-11.3,20.6-14.1,32.2c-1.3,5.2-2.5,10.3-4.2,15.3
	c2.1-20,3.3-40.3,17.1-56.8c2.4-2.9,5.7-5.1,9-7.1c3.6-2.2,4.2-4.8,2.8-8.4c-0.8-2-1.5-4-2.4-6c-4.1-9.9-8.2-19.8-12.5-30.3
	c-0.7,0.5-2.5,1.5-4.2,2.7c-12.8,9.4-21.8,21.9-28.3,36.2c-9.6,21.5-26.7,33.8-49.8,40.6c1.2-0.9,1.6-1.3,2-1.5
	c21.7-9.4,35.5-25.4,42.5-48.1c5-16.1,14.2-29.6,28.1-39.7c6.5-4.7,10-11.2,12.3-18.8c3.2-10.6,7.4-20.9,11.4-32.2
	c-7.1,2.4-14.7,4.5-21.9,7.5c-14.9,6.2-25.6,17.7-33,31.5c-6,11.2-13.5,20.2-24.2,27.2c-7.3,4.7-13.4,11.2-19.2,16.2
	c6.9-14.3,23.4-21.5,32.5-35.8c-23.2,12.7-49.7,10.4-74,17.6c-0.1-0.4-0.3-0.9-0.4-1.3c8.6-2.5,17.1-5,25.7-7.6
	c9.6-2.8,19.2-5.4,28.6-8.6c11.2-3.9,19.9-11.3,26.5-21.2c6.7-10.1,13.4-20.6,24-27.1c8.5-5.2,17.5-9.6,26.7-13.3
	c6.7-2.7,10.8-6.8,13.2-13.3c4.6-12.2,5-25.1,5.6-37.9c0.3-6,0.4-12,0.4-18c0-3,1.2-4.1,4.2-4c18.3,0.1,36.7,0.1,55,0
	c3.6,0,4,1.8,4,4.6c-0.1,14.2,0,28.3,0,42.5c0,11.2,3.6,21,11.7,28.8c1.8,1.7,4.5,2.8,6.9,3.3c9.3,1.6,18.7,3,28.1,4
	c5.4,0.6,11,1,16.4,0.4c13.6-1.6,26.5,0.3,38.7,6.7c6.4,3.4,13.3,6,19.9,9.4c-5.1-1.4-10.3-2.6-15.3-4.3
	c-10.2-3.5-20.3-7.6-31.5-6.2c-2.2,0.3-4.4,0.8-7.3,1.3c11,9.5,20.9,19.1,32,27.1c6.5,4.7,14.9,6.9,21.7,9.8
	c-10.4-0.2-21.1-3.6-30.9-9.6c-5.1-3.1-9.7-7-14.5-10.6c-14-10.8-30.2-13-47.1-12.6c-0.2,0.7-0.5,1.1-0.4,1.3
	c7.2,11.5,13.9,23.5,21.9,34.5c7.3,10.1,18.8,14.5,30.4,18.1c12.2,3.8,24.6,7.1,36.7,11.3c11.3,3.9,20.1,11.3,27.2,21
	c-0.3,0.1-0.5,0.2-0.5,0.2c-13.2-13.2-29.9-18-47.8-20.2c-10.2-1.3-20.3-3.3-32-5.2c1.6,4.7,2.2,9.2,4.5,12.7
	c4.2,6.2,9.1,11.9,14.2,17.3c8.5,9,15.3,18.9,17.1,31.5c0.7,4.9,0.9,9.9,0.2,14.9c-0.6-3.6-1-7.2-1.7-10.7
	c-2.3-10.2-6.8-19.1-14.6-26.2c-6.4-5.8-13-11.4-20.4-18c-0.2,3.2-0.8,5.8-0.3,8.1c1.7,7.6,4.1,15.1,5.9,22.7c1.7,7,3,14,3.7,21.2
	c-0.5-10.1-4.9-18.9-8.7-28c-2.9-6.9-4.6-13.8-4.4-21.3c0.4-15.2-4.8-27.4-17.3-37.2c-8.5-6.7-15.1-15.8-22-24.3
	c-7.5-9.2-14.2-19-24.6-25.3c-2.6-1.6-5.5-2.8-8.3-4.2c-0.3,0.4-0.7,0.8-1,1.2c1.3,1.5,2.6,3,4,4.4c11.5,12.1,21,25.3,24.6,42.1
	c2.9,13.3,1.5,26.5,0.1,39.8c-2.7,25.8-2.2,51.4,10.1,75.1c4.2,8,10.2,15.1,15.9,23.4c-4.1-4-8-7.2-11.2-11
	c-13.9-15.9-20.7-34.9-23-55.4c-1.5-13.8-1.1-27.9-1.7-41.9c-0.3-7.3-1-14.6-1.5-22C217,144.4,216.3,144.4,215.6,144.4z"/>
</svg>
